<?xml version="1.0" standalone="no"?>
<!DOCTYPE svg PUBLIC "-//W3C//DTD SVG 20010904//EN"
 "http://www.w3.org/TR/2001/REC-SVG-20010904/DTD/svg10.dtd">
<svg version="1.0" xmlns="http://www.w3.org/2000/svg"
 width="260.000000pt" height="64.000000pt" viewBox="0 0 260.000000 64.000000"
 preserveAspectRatio="xMidYMid meet">

<g transform="translate(0.000000,64.000000) scale(0.100000,-0.100000)"
fill="#000000" stroke="none">
<path d="M170 495 c-79 -46 -146 -88 -148 -93 -2 -6 20 -23 47 -39 l51 -28 0
-82 0 -82 99 -56 100 -56 100 57 101 56 0 81 c0 80 1 82 30 99 l29 17 3 -102
c2 -83 6 -102 18 -102 12 0 15 21 18 122 l3 121 -150 86 c-83 47 -152 86 -153
85 -2 0 -68 -38 -148 -84z m274 -25 c64 -36 116 -67 115 -70 0 -3 -53 -35
-119 -73 l-120 -67 -120 67 c-66 38 -119 70 -119 73 0 7 232 139 241 137 3 -1
58 -31 122 -67z m-156 -233 c7 -6 12 -33 12 -68 l0 -58 -67 38 -68 38 -3 63
-3 62 58 -33 c32 -17 64 -37 71 -42z m180 -52 c-7 -7 -39 -26 -71 -44 l-58
-32 3 63 3 62 65 38 65 37 3 -56 c2 -37 -1 -60 -10 -68z"/>
<path d="M830 325 l0 -145 95 0 c88 0 95 1 95 20 0 18 -7 20 -70 20 l-70 0 0
40 0 39 63 3 c56 3 62 5 65 26 3 21 0 22 -62 22 l-66 0 0 40 0 40 70 0 c63 0
70 2 70 20 0 19 -7 20 -95 20 l-95 0 0 -145z"/>
<path d="M1220 420 c0 -51 -8 -61 -30 -35 -14 17 -53 20 -81 5 -53 -29 -64
-137 -18 -186 26 -28 73 -32 107 -8 20 14 22 14 22 0 0 -10 9 -16 25 -16 l25
0 0 145 0 145 -25 0 c-23 0 -25 -3 -25 -50z m-25 -74 c14 -10 20 -26 20 -54 0
-46 -18 -72 -50 -72 -31 0 -50 26 -50 70 0 62 37 88 80 56z"/>
<path d="M1530 450 c0 -17 7 -20 45 -20 l45 0 0 -125 0 -125 30 0 30 0 0 125
0 125 45 0 c38 0 45 3 45 20 0 19 -7 20 -120 20 -113 0 -120 -1 -120 -20z"/>
<path d="M2400 325 l0 -145 24 0 c22 0 25 5 28 42 2 23 8 43 13 45 6 1 24 -17
40 -42 25 -37 35 -45 63 -45 l32 0 -45 62 -44 61 40 49 41 48 -28 0 c-21 0
-39 -12 -71 -47 l-42 -48 -1 83 c0 81 0 82 -25 82 l-25 0 0 -145z"/>
<path d="M1320 316 c0 -69 4 -88 21 -110 24 -31 72 -35 101 -9 17 15 18 15 18
0 0 -11 8 -17 25 -17 l25 0 0 110 0 110 -25 0 c-24 0 -25 -2 -25 -74 0 -76
-13 -106 -45 -106 -32 0 -45 30 -45 106 0 72 -1 74 -25 74 -25 0 -25 -1 -25
-84z"/>
<path d="M1790 290 l0 -110 25 0 c25 0 25 1 25 80 0 77 1 81 26 90 14 6 30 8
35 4 5 -3 9 6 9 20 0 30 -23 34 -58 10 -20 -14 -22 -14 -22 0 0 9 -9 16 -20
16 -19 0 -20 -7 -20 -110z"/>
<path d="M1966 379 c-14 -11 -26 -25 -26 -30 0 -12 47 -12 55 1 10 16 62 12
69 -6 9 -24 1 -31 -50 -38 -77 -10 -104 -52 -68 -104 19 -27 78 -30 106 -5 17
15 18 15 18 0 0 -11 8 -17 25 -17 25 0 25 1 25 85 0 78 -2 88 -25 110 -31 32
-91 34 -129 4z m104 -114 c0 -19 -35 -55 -54 -55 -19 0 -39 27 -33 44 10 24
87 34 87 11z"/>
<path d="M2201 374 c-51 -43 -54 -122 -6 -170 34 -34 106 -34 140 1 14 13 25
29 25 35 0 15 -46 12 -60 -5 -16 -20 -54 -19 -71 1 -7 9 -14 33 -14 54 0 21 7
45 14 54 19 22 58 20 73 -4 13 -21 58 -28 58 -9 0 6 -13 24 -29 40 -38 38 -87
39 -130 3z"/>
</g>
</svg>
